<svg aria-hidden="true" style="position: absolute; width: 0; height: 0; overflow: hidden;" version="1.1" xmlns="http://www.w3.org/2000/svg" xmlns:xlink="http://www.w3.org/1999/xlink">
<defs>
<symbol id="icon-untitled" viewBox="0 0 32 32">
<path d="M26.487 2.689h1.614c0.302 0 0.538-0.235 0.538-0.538v-1.076c0-0.303-0.235-0.538-0.538-0.538h-24.74c-0.303 0-0.538 0.235-0.538 0.538v1.076c0 0.303 0.235 0.538 0.538 0.538h1.613c0 6.219 2.975 10.723 6.269 12.908-3.294 2.185-6.269 6.689-6.269 12.908h-1.613c-0.303 0-0.538 0.235-0.538 0.538v1.076c0 0.302 0.235 0.538 0.538 0.538h24.74c0.302 0 0.538-0.235 0.538-0.538v-1.076c0-0.302-0.235-0.538-0.538-0.538h-1.614c0-6.219-2.975-10.723-6.269-12.908 3.294-2.185 6.269-6.689 6.269-12.908zM24.336 2.689c0 2.454-0.555 4.622-1.429 6.454h-14.353c-0.874-1.832-1.429-4-1.429-6.454h17.21zM23.378 23.126h-15.294c1.244-3.244 3.479-5.546 5.714-6.454h3.866c2.235 0.908 4.471 3.21 5.714 6.454z"></path>
</symbol>
<symbol id="icon-heart" viewBox="0 0 32 32">
<path d="M16 29.286c0.286 0 0.571-0.107 0.786-0.322l11.125-10.714c0.161-0.161 4.089-3.75 4.089-8.036 0-5.232-3.196-8.357-8.536-8.357-3.125 0-6.053 2.464-7.464 3.857-1.411-1.393-4.339-3.857-7.464-3.857-5.339 0-8.536 3.125-8.536 8.357 0 4.286 3.929 7.875 4.071 8l11.143 10.75c0.214 0.214 0.5 0.322 0.786 0.322z"></path>
</symbol>
<symbol id="icon-wave" viewBox="0 0 32 32">
<path d="M16.857 13.587l2.079 0.968 3.095-0.921v-2.159c0-3.667-3.095-6.603-6.794-6.603-3.683 0-6.794 2.921-6.794 6.556v9.841c0 0.905-0.73 1.619-1.619 1.619s-1.619-0.714-1.619-1.619v-4.159h-5.206c0 4.175 0 4.222 0 4.222 0 3.762 3.048 6.81 6.81 6.81 3.73 0 6.809-3 6.809-6.714v-9.714c0-0.889 0.73-1.619 1.619-1.619s1.619 0.73 1.619 1.619v1.873zM25.27 17.111v4.365c0 0.889-0.73 1.603-1.619 1.603s-1.619-0.714-1.619-1.603v-4.286l-3.095 0.921-2.079-0.968v4.254c0 3.73 3.064 6.746 6.81 6.746 3.762 0 6.81-3.048 6.81-6.81 0 0 0-0.048 0-4.222h-5.206z"></path>
</symbol>
<symbol id="icon-uparrow" viewBox="0 0 32 32">
<path d="M24.689 18.067l-17.21-17.21c-0.202-0.219-0.471-0.319-0.756-0.319-0.134 0-0.286 0.034-0.403 0.084-0.403 0.168-0.672 0.555-0.672 0.992v25.277c0 0.437 0.269 0.824 0.672 0.992 0.118 0.050 0.269 0.084 0.403 0.084 0.286 0 0.555-0.118 0.756-0.319l5.244-5.244 3.21 7.597c0.235 0.538 0.857 0.807 1.412 0.571l2.975-1.261c0.538-0.235 0.807-0.857 0.571-1.412l-3.378-8h6.42c0.437 0 0.824-0.269 0.992-0.672 0.168-0.387 0.084-0.857-0.235-1.16z"></path>
</symbol>
<symbol id="icon-Path" viewBox="0 0 32 32">
<path d="M29.767 5.156c-0.589-0.601-1.544-0.601-2.133 0l-18.075 18.425-6.948-7.082c-0.589-0.601-1.544-0.601-2.134 0s-0.589 1.574 0 2.175l8.014 8.17c0.589 0.6 1.545 0.6 2.134 0l19.142-19.513c0.589-0.601 0.589-1.574 0-2.175z"></path>
</symbol>
<symbol id="icon-Triangle" viewBox="0 0 28 32">
<path fill="#02897a" style="fill: var(--color1, #02897a)" d="M26.088 12.891c2.441 1.354 2.441 4.864 0 6.218l-21.155 11.739c-2.37 1.315-5.281-0.399-5.281-3.109v-23.477c0-2.71 2.911-4.424 5.281-3.109l21.155 11.739z"></path>
</symbol>
</defs>
</svg>
